<svg t="1680515230281" class="icon" viewBox="0 0 1024 1024" version="1.1" xmlns="http://www.w3.org/2000/svg" p-id="10939" width="200" height="200"><path d="M64 512c0 298.7 149.3 448 448 448 298.6 0 448-149.3 448-448S810.6 64 512 64C213.3 64 64 213.3 64 512z m803.2 0c0 236.8-118.4 355.3-355.3 355.3-236.8 0-355.3-118.4-355.3-355.3s118.5-355.3 355.3-355.3c236.9 0.1 355.3 118.5 355.3 355.3z" fill="#76c6f0" p-id="10940"></path><path d="M415.1 321.4c0 9.7 21.3 96 21.3 185.1s-19.3 181-21.3 187.4c-7.5 23.7 22.2 38.5 34.2 28.4 9.6-8.1 185.8-173.1 202.3-187.1 23.9-16 6.3-47.4 6.3-47.4-11.9-10.3-197-179.3-211-190.8-10.3-8.4-31.8-8.7-31.8 24.4z" fill="#76c6f0" p-id="10941"></path></svg>