<svg t="1680515245642" class="icon" viewBox="0 0 1024 1024" version="1.1" xmlns="http://www.w3.org/2000/svg" p-id="11155" width="200" height="200"><path d="M512 960c298.7 0 448-149.3 448-448 0-298.6-149.3-448-448-448S64 213.4 64 512c0 298.7 149.3 448 448 448z m0-803.2c236.8 0 355.3 118.4 355.3 355.3 0 236.8-118.4 355.3-355.3 355.3S156.7 748.9 156.7 512.1c0.1-236.9 118.5-355.3 355.3-355.3z" fill="#76c6f0" p-id="11156"></path><path d="M321.4 608.9c9.7 0 96-21.3 185.1-21.3s181 19.3 187.4 21.3c23.7 7.5 38.5-22.2 28.4-34.2-8.1-9.6-173.1-185.8-187.1-202.3-16-23.9-47.4-6.3-47.4-6.3-10.3 11.9-179.3 197-190.8 211-8.4 10.3-8.7 31.8 24.4 31.8z" fill="#76c6f0" p-id="11157"></path></svg>